<svg width="1547" height="1547" viewBox="0 0 1547 1547" fill="none" xmlns="http://www.w3.org/2000/svg">
<path d="M175.748 832.264C160.037 849.216 131.879 868.952 137.68 812.285C144.931 741.452 229.224 696.046 250.071 698.77C266.688 696.348 301.131 700.892 323.487 723.289C352.663 752.519 415.031 843.161 482.103 716.933C535.76 615.949 621.414 627.336 648.876 656.088C668.988 677.145 689.649 748.886 622.591 822.275C587.586 860.585 548.087 890.929 485.729 907.638C423.37 924.348 369.108 879.486 347.959 856.783C326.378 833.616 287.595 775.961 256.415 775.961C225.236 775.961 192.234 814.475 175.748 832.264Z" fill="url(#paint0_linear_56_64)"/>
<path d="M174.843 832.264C159.132 849.216 130.974 868.952 136.775 812.285C144.026 741.452 228.319 696.046 249.166 698.77C265.782 696.348 300.226 700.892 322.582 723.289C351.758 752.519 414.126 843.161 481.198 716.933C534.855 615.949 620.508 627.336 647.971 656.088C668.083 677.145 688.743 748.886 621.686 822.275C586.68 860.585 547.182 890.929 484.823 907.638C422.465 924.348 368.203 879.486 347.054 856.783C325.473 833.616 286.69 775.961 255.51 775.961C224.331 775.961 191.329 814.475 174.843 832.264Z" fill="url(#paint1_linear_56_64)"/>
<path d="M583.75 875.926C581.575 875.018 579.037 873.202 577.768 871.749C574.868 868.116 555.652 795.648 555.652 787.838C555.652 780.21 560.728 774.035 566.891 774.035C569.248 774.035 586.832 781.118 606.228 789.836C637.407 803.821 641.577 806.182 644.115 811.449C647.74 819.078 644.658 827.432 636.501 831.61C633.419 833.063 630.519 834.697 630.156 835.06C629.794 835.424 632.15 839.056 635.232 843.415C641.395 851.952 642.121 857.037 638.133 864.847C634.326 872.112 628.525 875.744 620.549 875.744C615.292 875.744 612.935 874.655 609.129 869.932C606.047 866.118 603.872 864.847 603.328 866.118C600.246 874.291 590.82 878.832 583.75 875.926Z" fill="white"/>
<path d="M637.481 816.925C637.643 818.217 637.491 819.507 637.042 820.654C636.568 821.791 635.833 822.745 634.91 823.424L617.261 832.61L630.85 851.096C631.397 851.666 631.857 852.343 632.191 853.09C632.579 853.954 632.827 854.882 632.922 855.824C633.001 856.77 632.9 857.707 632.625 858.573C632.361 859.465 631.936 860.275 631.376 860.949L625.448 867.145C624.75 867.891 623.886 868.41 622.935 868.657C622.349 868.814 621.751 868.87 621.14 868.825C619.524 868.675 617.974 867.815 616.819 866.427L603.136 847.757L593.716 866.402C593.106 867.561 592.192 868.458 591.091 868.977C589.99 869.497 588.753 869.615 587.539 869.317C586.351 868.994 585.244 868.294 584.35 867.3C583.455 866.306 582.811 865.06 582.494 863.711L562.922 790.528C562.612 789.309 562.567 788.045 562.791 786.848C563.036 785.627 563.584 784.536 564.373 783.702C565.143 782.864 566.114 782.299 567.182 782.068C568.251 781.836 569.377 781.947 570.439 782.387L633.251 810.84C634.33 811.351 635.295 812.175 636.044 813.23C636.812 814.305 637.307 815.585 637.481 816.925Z" fill="#10288C"/>
<path fill-rule="evenodd" clip-rule="evenodd" d="M1126.84 654.796C1100.41 666.546 1108.19 702.363 1137.17 702.363C1146.43 702.363 1152.02 700.69 1156.98 696.433C1179.14 677.414 1154.03 642.713 1126.84 654.796ZM777.495 776.197L777.871 891.241L797.678 891.637C825.101 892.185 824.088 892.591 824.088 881.002V871.502L831.565 878.32C858.171 902.581 904.638 900.043 934.041 872.723C973.628 835.94 967.654 761.856 922.861 734.078C894.489 716.484 847.896 719.4 829.112 739.946L824.088 745.441V705.47C824.088 683.486 823.688 664.521 823.198 663.326C822.439 661.474 818.962 661.153 799.713 661.153H777.121L777.495 776.197ZM1245.55 663.134C1222.22 668.424 1209.97 685.552 1209.97 712.862V725.608L1197.13 726.005L1184.29 726.402L1183.88 742.003C1183.36 761.415 1183.37 761.43 1198.4 761.43H1209.94L1210.32 826.336L1210.7 891.241L1229.78 891.637C1240.27 891.855 1250.34 891.689 1252.15 891.267L1255.45 890.502V826.009V761.515L1273.43 761.129L1291.4 760.743V743.573V726.402L1273.43 726.016L1255.45 725.63V717.387C1255.45 700.142 1260.93 695.161 1281.05 694.121L1294.33 693.434L1294.75 679.211C1295.03 669.903 1294.59 664.326 1293.47 663.071C1291.26 660.571 1256.65 660.616 1245.55 663.134ZM1364.1 662.653C1339.32 667.2 1327.49 682.064 1326.21 710.261L1325.51 725.715H1314.98C1301.14 725.715 1300.94 725.977 1300.94 743.573C1300.94 761.202 1301.12 761.43 1315.17 761.43H1325.88V825.845C1325.88 883.316 1326.13 890.349 1328.2 891.094C1329.48 891.553 1338.67 891.928 1348.62 891.928C1358.58 891.928 1367.77 891.553 1369.04 891.094C1371.11 890.349 1371.36 883.316 1371.36 825.845V761.43H1388.68C1410.13 761.43 1409.51 761.944 1409.51 744.097C1409.51 724.366 1410.99 725.715 1389.39 725.715H1371.05L1371.59 714.742C1372.35 699.054 1376.57 695.051 1393.01 694.435C1412.32 693.712 1410.98 694.898 1410.98 678.572C1410.98 669.42 1410.36 663.87 1409.22 662.801C1407.15 660.863 1374.44 660.756 1364.1 662.653ZM1064.32 724.462C1051.94 727.194 1041.79 733.566 1034.47 743.2L1029.5 749.746V739.904C1029.5 724.762 1031.14 725.715 1005.13 725.715H982.549V808.109V890.502L985.85 891.267C987.665 891.689 997.735 891.855 1008.23 891.637L1027.3 891.241L1028.11 844.537C1029.01 792.447 1029.65 788.553 1038.94 778.392C1047.08 769.484 1056.57 766.242 1074.49 766.241C1082.7 766.239 1089.96 765.728 1090.63 765.106C1092.6 763.282 1095.36 726.678 1093.68 724.685C1092 722.689 1073.02 722.546 1064.32 724.462ZM1117.08 726.596C1116.52 727.119 1116.07 764.212 1116.07 809.025V890.502L1119.37 891.267C1121.18 891.689 1131.25 891.855 1141.74 891.637L1160.82 891.241V808.821V726.402L1139.46 726.023C1127.71 725.815 1117.64 726.072 1117.08 726.596ZM887.484 764.432C922.953 778.716 923.226 835.008 887.913 852.538C878.173 857.373 856.681 856.817 846.342 851.463C808.936 832.09 816.251 769.393 856.846 761.422C865.359 759.75 879.25 761.116 887.484 764.432Z" fill="#10288C"/>
<defs>
<linearGradient id="paint0_linear_56_64" x1="136.946" y1="806.098" x2="651.767" y2="804.289" gradientUnits="userSpaceOnUse">
<stop stop-color="#02C4CF"/>
<stop offset="0.300304" stop-color="#12ABFB"/>
<stop offset="0.578378" stop-color="#745EFE"/>
<stop offset="0.8289" stop-color="#D057E0"/>
<stop offset="1" stop-color="#F96499"/>
</linearGradient>
<linearGradient id="paint1_linear_56_64" x1="136.04" y1="806.098" x2="650.862" y2="804.289" gradientUnits="userSpaceOnUse">
<stop stop-color="#02C4CF"/>
<stop offset="0.300304" stop-color="#12ABFB"/>
<stop offset="0.578378" stop-color="#745EFE"/>
<stop offset="0.8289" stop-color="#D057E0"/>
<stop offset="1" stop-color="#F96499"/>
</linearGradient>
</defs>
</svg>
