<svg width="1547" height="1547" viewBox="0 0 1547 1547" fill="none" xmlns="http://www.w3.org/2000/svg">
<path d="M176.748 762.264C161.037 779.216 132.879 798.952 138.68 742.285C145.931 671.452 230.224 626.046 251.071 628.77C267.688 626.348 302.131 630.892 324.487 653.289C353.663 682.519 416.031 773.161 483.103 646.933C536.76 545.949 622.414 557.336 649.876 586.088C669.988 607.145 690.649 678.886 623.591 752.275C588.586 790.585 549.087 820.929 486.729 837.638C424.37 854.348 370.108 809.486 348.959 786.783C327.378 763.616 288.595 705.961 257.415 705.961C226.236 705.961 193.234 744.475 176.748 762.264Z" fill="url(#paint0_linear_57_147)"/>
<path d="M175.843 762.264C160.132 779.216 131.974 798.952 137.775 742.285C145.026 671.452 229.319 626.046 250.166 628.77C266.782 626.348 301.226 630.892 323.582 653.289C352.758 682.519 415.126 773.161 482.198 646.933C535.855 545.949 621.508 557.336 648.971 586.088C669.083 607.145 689.743 678.886 622.686 752.275C587.68 790.585 548.182 820.929 485.823 837.638C423.465 854.348 369.203 809.486 348.054 786.783C326.473 763.616 287.69 705.961 256.51 705.961C225.331 705.961 192.329 744.475 175.843 762.264Z" fill="url(#paint1_linear_57_147)"/>
<path d="M584.75 805.926C582.575 805.018 580.037 803.202 578.768 801.749C575.868 798.116 556.652 725.648 556.652 717.838C556.652 710.21 561.728 704.035 567.891 704.035C570.248 704.035 587.832 711.118 607.228 719.836C638.407 733.821 642.577 736.182 645.115 741.449C648.74 749.078 645.658 757.432 637.501 761.61C634.419 763.063 631.519 764.697 631.156 765.06C630.794 765.424 633.15 769.056 636.232 773.415C642.395 781.952 643.121 787.037 639.133 794.847C635.326 802.112 629.525 805.744 621.549 805.744C616.292 805.744 613.935 804.655 610.129 799.932C607.047 796.118 604.872 794.847 604.328 796.118C601.246 804.291 591.82 808.832 584.75 805.926Z" fill="#1A1642"/>
<path d="M638.481 746.925C638.643 748.217 638.491 749.507 638.042 750.654C637.568 751.791 636.833 752.745 635.91 753.424L618.261 762.61L631.85 781.096C632.397 781.666 632.857 782.343 633.191 783.091C633.579 783.954 633.827 784.882 633.922 785.825C634.001 786.77 633.9 787.708 633.625 788.573C633.361 789.465 632.936 790.276 632.376 790.949L626.448 797.145C625.75 797.891 624.886 798.411 623.935 798.657C623.349 798.815 622.751 798.871 622.14 798.825C620.524 798.675 618.974 797.815 617.819 796.427L604.136 777.757L594.716 796.403C594.106 797.561 593.192 798.458 592.091 798.978C590.99 799.497 589.753 799.615 588.539 799.317C587.351 798.994 586.244 798.294 585.35 797.3C584.455 796.306 583.811 795.061 583.494 793.712L563.922 720.528C563.612 719.31 563.567 718.045 563.791 716.848C564.036 715.627 564.584 714.536 565.373 713.702C566.143 712.864 567.114 712.3 568.182 712.068C569.251 711.836 570.377 711.947 571.439 712.388L634.251 740.84C635.33 741.351 636.295 742.175 637.044 743.23C637.812 744.306 638.307 745.586 638.481 746.925Z" fill="white"/>
<path fill-rule="evenodd" clip-rule="evenodd" d="M1127.84 584.796C1101.41 596.546 1109.19 632.363 1138.17 632.363C1147.43 632.363 1153.02 630.69 1157.98 626.433C1180.14 607.415 1155.03 572.713 1127.84 584.796ZM778.495 706.197L778.871 821.241L798.678 821.637C826.101 822.185 825.088 822.591 825.088 811.002V801.502L832.565 808.32C859.171 832.581 905.638 830.043 935.041 802.723C974.628 765.94 968.654 691.856 923.861 664.078C895.489 646.484 848.896 649.4 830.112 669.946L825.088 675.441V635.47C825.088 613.486 824.688 594.521 824.198 593.326C823.439 591.475 819.962 591.153 800.713 591.153H778.121L778.495 706.197ZM1246.55 593.134C1223.22 598.424 1210.97 615.552 1210.97 642.862V655.608L1198.13 656.005L1185.29 656.402L1184.88 672.003C1184.36 691.415 1184.37 691.43 1199.4 691.43H1210.94L1211.32 756.336L1211.7 821.241L1230.78 821.637C1241.27 821.855 1251.34 821.689 1253.15 821.267L1256.45 820.502V756.009V691.515L1274.43 691.129L1292.4 690.743V673.573V656.402L1274.43 656.016L1256.45 655.63V647.387C1256.45 630.142 1261.93 625.161 1282.05 624.121L1295.33 623.434L1295.75 609.211C1296.03 599.903 1295.59 594.326 1294.47 593.071C1292.26 590.571 1257.65 590.616 1246.55 593.134ZM1365.1 592.653C1340.32 597.2 1328.49 612.064 1327.21 640.261L1326.51 655.715H1315.98C1302.14 655.715 1301.94 655.978 1301.94 673.573C1301.94 691.202 1302.12 691.43 1316.17 691.43H1326.88V755.845C1326.88 813.316 1327.13 820.35 1329.2 821.094C1330.48 821.553 1339.67 821.928 1349.62 821.928C1359.58 821.928 1368.77 821.553 1370.04 821.094C1372.11 820.35 1372.36 813.316 1372.36 755.845V691.43H1389.68C1411.13 691.43 1410.51 691.944 1410.51 674.097C1410.51 654.366 1411.99 655.715 1390.39 655.715H1372.05L1372.59 644.742C1373.35 629.054 1377.57 625.051 1394.01 624.436C1413.32 623.712 1411.98 624.898 1411.98 608.573C1411.98 599.42 1411.36 593.87 1410.22 592.802C1408.15 590.863 1375.44 590.756 1365.1 592.653ZM1065.32 654.462C1052.94 657.195 1042.79 663.566 1035.47 673.2L1030.5 679.746V669.904C1030.5 654.762 1032.14 655.715 1006.13 655.715H983.549V738.109V820.502L986.85 821.267C988.665 821.689 998.735 821.855 1009.23 821.637L1028.3 821.241L1029.11 774.537C1030.01 722.448 1030.65 718.553 1039.94 708.392C1048.08 699.484 1057.57 696.242 1075.49 696.241C1083.7 696.24 1090.96 695.728 1091.63 695.106C1093.6 693.282 1096.36 656.678 1094.68 654.685C1093 652.689 1074.02 652.546 1065.32 654.462ZM1118.08 656.596C1117.52 657.119 1117.07 694.212 1117.07 739.025V820.502L1120.37 821.267C1122.18 821.689 1132.25 821.855 1142.74 821.637L1161.82 821.241V738.822V656.402L1140.46 656.023C1128.71 655.815 1118.64 656.072 1118.08 656.596ZM888.484 694.432C923.953 708.716 924.226 765.008 888.913 782.538C879.173 787.374 857.681 786.817 847.342 781.463C809.936 762.09 817.251 699.393 857.846 691.422C866.359 689.75 880.25 691.116 888.484 694.432Z" fill="white"/>
<path d="M269.1 962.072V897.522H279.026L305.145 940.355L301.165 940.402L326.324 897.522H336.067V962.072H326.049L326.186 911.262L328.153 911.954L306.38 948.147H298.878L276.693 911.954L278.34 911.262L278.477 962.072H269.1Z" fill="white"/>
<path d="M363.975 963.455C360.834 963.455 358.074 962.871 355.696 961.703C353.317 960.504 351.457 958.829 350.115 956.677C348.804 954.495 348.148 951.928 348.148 948.977C348.148 946.488 348.773 944.244 350.024 942.246C351.274 940.217 353.21 938.542 355.833 937.22C358.486 935.898 361.886 935.022 366.033 934.592C370.181 934.131 375.167 934.192 380.991 934.776L381.174 941.785C377.027 941.201 373.459 940.955 370.47 941.047C367.482 941.139 365.027 941.523 363.106 942.2C361.215 942.845 359.812 943.721 358.898 944.828C358.013 945.904 357.571 947.148 357.571 948.562C357.571 950.776 358.349 952.482 359.904 953.68C361.49 954.879 363.655 955.478 366.399 955.478C368.747 955.478 370.852 955.048 372.712 954.187C374.572 953.327 376.036 952.113 377.103 950.545C378.201 948.977 378.75 947.133 378.75 945.012V932.886C378.75 930.857 378.323 929.105 377.469 927.63C376.615 926.124 375.319 924.956 373.581 924.126C371.843 923.296 369.678 922.881 367.086 922.881C364.707 922.881 362.359 923.25 360.041 923.987C357.724 924.694 355.513 925.816 353.409 927.353L350.573 919.884C353.409 917.947 356.367 916.58 359.447 915.78C362.527 914.981 365.485 914.582 368.321 914.582C372.529 914.582 376.127 915.258 379.116 916.61C382.135 917.932 384.452 919.945 386.069 922.65C387.685 925.325 388.493 928.706 388.493 932.794V962.072H379.436V956.677C377.911 958.86 375.792 960.535 373.078 961.703C370.364 962.871 367.329 963.455 363.975 963.455Z" fill="white"/>
<path d="M401.873 962.072V895.678H411.936V934.961L429.776 916.426H441.669L425.659 933.9L444.002 962.072H431.971L418.34 940.494L411.936 947.041V962.072H401.873Z" fill="white"/>
<path d="M472.668 963.455C467.789 963.455 463.505 962.456 459.815 960.458C456.125 958.429 453.243 955.601 451.17 951.974C449.126 948.347 448.105 944.136 448.105 939.341C448.105 935.837 448.7 932.609 449.889 929.659C451.078 926.677 452.755 924.095 454.92 921.913C457.086 919.73 459.617 918.04 462.514 916.841C465.441 915.642 468.628 915.043 472.074 915.043C475.825 915.043 479.164 915.719 482.091 917.071C485.019 918.393 487.443 920.253 489.364 922.65C491.316 925.048 492.688 927.86 493.481 931.088C494.304 934.285 494.442 937.758 493.893 941.508H457.756C457.695 944.244 458.29 946.641 459.54 948.701C460.791 950.729 462.575 952.312 464.892 953.45C467.24 954.587 470 955.156 473.172 955.156C475.733 955.156 478.203 954.771 480.582 954.003C482.991 953.204 485.171 952.036 487.123 950.499L491.011 957.784C489.547 958.983 487.779 960.012 485.705 960.873C483.631 961.703 481.466 962.333 479.21 962.763C476.953 963.224 474.773 963.455 472.668 963.455ZM458.351 934.039H484.012C483.921 930.596 482.823 927.891 480.719 925.924C478.645 923.957 475.687 922.973 471.845 922.973C468.125 922.973 465.029 923.957 462.559 925.924C460.12 927.891 458.717 930.596 458.351 934.039Z" fill="white"/>
<path d="M548.956 963.455C544.534 963.455 540.204 962.825 535.965 961.565C531.757 960.274 528.204 958.429 525.307 956.032L530.339 948.147C531.863 949.469 533.632 950.607 535.645 951.559C537.688 952.512 539.853 953.25 542.14 953.773C544.427 954.264 546.714 954.51 549.001 954.51C553.179 954.51 556.549 953.711 559.11 952.113C561.702 950.514 562.998 948.178 562.998 945.104C562.998 942.799 562.114 940.847 560.345 939.249C558.607 937.65 555.375 936.175 550.648 934.823L544.061 932.886C538.023 931.134 533.617 928.813 530.842 925.924C528.097 923.035 526.725 919.438 526.725 915.135C526.725 912.276 527.289 909.694 528.417 907.389C529.576 905.084 531.192 903.086 533.266 901.395C535.37 899.705 537.84 898.414 540.676 897.522C543.512 896.631 546.623 896.185 550.008 896.185C554.307 896.185 558.302 896.815 561.992 898.075C565.682 899.336 568.731 901.026 571.141 903.147L565.926 910.801C564.615 909.602 563.075 908.572 561.306 907.712C559.568 906.851 557.692 906.19 555.68 905.729C553.667 905.268 551.624 905.038 549.55 905.038C546.989 905.038 544.717 905.422 542.735 906.19C540.783 906.928 539.258 908.004 538.16 909.418C537.063 910.832 536.514 912.553 536.514 914.582C536.514 916.057 536.88 917.348 537.612 918.455C538.343 919.561 539.594 920.576 541.362 921.498C543.162 922.389 545.632 923.296 548.773 924.218L555.725 926.293C561.641 928.045 565.972 930.335 568.716 933.163C571.461 935.96 572.833 939.602 572.833 944.09C572.833 947.932 571.888 951.313 569.997 954.234C568.137 957.123 565.423 959.382 561.855 961.011C558.287 962.64 553.987 963.455 548.956 963.455Z" fill="white"/>
<path d="M585.543 962.072V897.522H595.469L621.588 940.355L617.608 940.402L642.766 897.522H652.509V962.072H642.492L642.629 911.262L644.596 911.954L622.823 948.147H615.321L593.136 911.954L594.783 911.262L594.92 962.072H585.543Z" fill="white"/>
<path d="M669.165 962.072V897.522H679.091L705.21 940.355L701.231 940.402L726.389 897.522H736.132V962.072H726.114L726.251 911.262L728.218 911.954L706.445 948.147H698.943L676.758 911.954L678.405 911.262L678.542 962.072H669.165Z" fill="white"/>
<path d="M791.725 982.82C788.34 982.82 785.291 982.512 782.577 981.898C779.862 981.314 777.545 980.453 775.624 979.316C773.733 978.178 772.285 976.811 771.278 975.212C770.272 973.614 769.769 971.831 769.769 969.864C769.769 968.296 770.18 966.821 771.004 965.438C771.858 964.054 773.108 962.871 774.755 961.887C776.432 960.873 778.475 960.12 780.884 959.628C779.085 958.706 777.743 957.661 776.859 956.493C776.005 955.325 775.578 953.988 775.578 952.482C775.578 951.191 775.944 949.976 776.676 948.839C777.438 947.671 778.505 946.641 779.878 945.75C781.28 944.828 782.927 944.075 784.818 943.491C786.709 942.907 788.797 942.569 791.085 942.476L793.28 946.903C791.389 946.872 789.773 947.026 788.431 947.364C787.12 947.671 786.099 948.117 785.367 948.701C784.665 949.254 784.315 949.93 784.315 950.729C784.315 951.775 784.909 952.543 786.099 953.035C787.288 953.496 788.965 953.819 791.13 954.003L798.906 954.602C802.718 954.91 805.966 955.54 808.65 956.493C811.364 957.446 813.437 958.783 814.87 960.504C816.334 962.225 817.066 964.408 817.066 967.051C817.066 969.295 816.456 971.37 815.236 973.276C814.047 975.212 812.324 976.887 810.068 978.301C807.841 979.715 805.173 980.822 802.063 981.621C798.952 982.42 795.506 982.82 791.725 982.82ZM792.731 975.812C797.275 975.812 800.843 975.12 803.435 973.737C806.057 972.384 807.369 970.617 807.369 968.434C807.369 966.775 806.5 965.484 804.761 964.562C803.023 963.639 800.37 963.055 796.802 962.809L788.477 962.164C786.526 962.318 784.833 962.687 783.4 963.271C781.997 963.855 780.93 964.608 780.198 965.53C779.466 966.452 779.1 967.497 779.1 968.665C779.1 970.079 779.649 971.324 780.747 972.4C781.845 973.476 783.415 974.305 785.458 974.889C787.501 975.504 789.926 975.812 792.731 975.812ZM792.411 947.594C788.63 947.594 785.23 946.872 782.211 945.427C779.222 943.982 776.859 942.031 775.121 939.572C773.382 937.113 772.513 934.362 772.513 931.318C772.513 928.275 773.382 925.524 775.121 923.065C776.889 920.606 779.268 918.654 782.256 917.21C785.275 915.765 788.66 915.043 792.411 915.043C796.162 915.043 799.532 915.765 802.52 917.21C805.509 918.654 807.872 920.606 809.61 923.065C811.379 925.524 812.263 928.275 812.263 931.318C812.263 934.331 811.394 937.066 809.656 939.525C807.918 941.985 805.554 943.952 802.566 945.427C799.577 946.872 796.192 947.594 792.411 947.594ZM792.411 939.987C794.485 939.987 796.33 939.633 797.946 938.926C799.562 938.188 800.828 937.174 801.742 935.883C802.657 934.561 803.115 933.04 803.115 931.318C803.115 928.736 802.108 926.646 800.096 925.048C798.114 923.419 795.552 922.604 792.411 922.604C790.307 922.604 788.447 922.973 786.831 923.711C785.245 924.449 783.994 925.478 783.08 926.8C782.165 928.091 781.707 929.597 781.707 931.318C781.707 933.87 782.698 935.96 784.681 937.589C786.693 939.187 789.27 939.987 792.411 939.987ZM799.455 924.449L795.705 917.394L819.994 916.426L819.902 924.817L799.455 924.449Z" fill="white"/>
<path d="M828.651 962.072V916.426H838.714V922.743C840.422 919.884 842.496 917.886 844.935 916.749C847.375 915.581 849.997 914.997 852.803 914.997C853.718 914.997 854.587 915.043 855.41 915.135C856.233 915.227 857.026 915.365 857.789 915.55L856.462 926.016C855.547 925.74 854.617 925.524 853.672 925.371C852.727 925.217 851.781 925.14 850.836 925.14C847.329 925.14 844.432 926.231 842.145 928.414C839.858 930.565 838.714 933.501 838.714 937.22V962.072H828.651Z" fill="white"/>
<path d="M885.956 963.455C881.077 963.455 876.792 962.456 873.102 960.458C869.412 958.429 866.531 955.601 864.457 951.974C862.414 948.347 861.392 944.136 861.392 939.341C861.392 935.837 861.987 932.609 863.176 929.659C864.366 926.677 866.043 924.095 868.208 921.913C870.373 919.73 872.904 918.04 875.801 916.841C878.729 915.642 881.915 915.043 885.361 915.043C889.112 915.043 892.451 915.719 895.379 917.071C898.306 918.393 900.731 920.253 902.652 922.65C904.603 925.048 905.976 927.86 906.769 931.088C907.592 934.285 907.729 937.758 907.18 941.508H871.044C870.983 944.244 871.578 946.641 872.828 948.701C874.078 950.729 875.862 952.312 878.18 953.45C880.528 954.587 883.288 955.156 886.459 955.156C889.021 955.156 891.491 954.771 893.869 954.003C896.278 953.204 898.459 952.036 900.41 950.499L904.298 957.784C902.835 958.983 901.066 960.012 898.992 960.873C896.919 961.703 894.754 962.333 892.497 962.763C890.24 963.224 888.06 963.455 885.956 963.455ZM871.639 934.039H897.3C897.208 930.596 896.111 927.891 894.007 925.924C891.933 923.957 888.975 922.973 885.133 922.973C881.412 922.973 878.317 923.957 875.847 925.924C873.407 927.891 872.005 930.596 871.639 934.039Z" fill="white"/>
<path d="M930.213 963.455C927.072 963.455 924.312 962.871 921.934 961.703C919.555 960.504 917.695 958.829 916.353 956.677C915.042 954.495 914.386 951.928 914.386 948.977C914.386 946.488 915.011 944.244 916.262 942.246C917.512 940.217 919.448 938.542 922.071 937.22C924.724 935.898 928.124 935.022 932.271 934.592C936.419 934.131 941.404 934.192 947.229 934.776L947.412 941.785C943.265 941.201 939.697 940.955 936.708 941.047C933.72 941.139 931.265 941.523 929.344 942.2C927.453 942.845 926.05 943.721 925.135 944.828C924.251 945.904 923.809 947.148 923.809 948.562C923.809 950.776 924.587 952.482 926.142 953.68C927.728 954.879 929.893 955.478 932.637 955.478C934.985 955.478 937.089 955.048 938.95 954.187C940.81 953.327 942.274 952.113 943.341 950.545C944.439 948.977 944.988 947.133 944.988 945.012V932.886C944.988 930.857 944.561 929.105 943.707 927.63C942.853 926.124 941.557 924.956 939.819 924.126C938.081 923.296 935.915 922.881 933.323 922.881C930.945 922.881 928.597 923.25 926.279 923.987C923.961 924.694 921.751 925.816 919.646 927.353L916.81 919.884C919.646 917.947 922.604 916.58 925.684 915.78C928.764 914.981 931.722 914.582 934.558 914.582C938.767 914.582 942.365 915.258 945.353 916.61C948.372 917.932 950.69 919.945 952.306 922.65C953.923 925.325 954.731 928.706 954.731 932.794V962.072H945.674V956.677C944.149 958.86 942.03 960.535 939.316 961.703C936.601 962.871 933.567 963.455 930.213 963.455Z" fill="white"/>
<path d="M986.246 963.455C981.825 963.455 978.287 962.164 975.634 959.582C972.981 957 971.655 953.05 971.655 947.733V903.101H981.718V916.426H994.297V924.817H981.718V945.519C981.718 948.716 982.312 950.975 983.502 952.297C984.722 953.588 986.429 954.234 988.625 954.234C989.692 954.234 990.699 954.111 991.644 953.865C992.589 953.619 993.443 953.296 994.205 952.896L995.989 961.104C994.678 961.78 993.169 962.333 991.461 962.763C989.784 963.224 988.045 963.455 986.246 963.455ZM961.729 924.817V916.426H972.981V924.817H961.729Z" fill="white"/>
<path d="M1041.53 963.455C1038.39 963.455 1035.63 962.871 1033.25 961.703C1030.87 960.504 1029.01 958.829 1027.67 956.677C1026.36 954.495 1025.7 951.928 1025.7 948.977C1025.7 946.488 1026.33 944.244 1027.58 942.246C1028.83 940.217 1030.77 938.542 1033.39 937.22C1036.04 935.898 1039.44 935.022 1043.59 934.592C1047.74 934.131 1052.72 934.192 1058.55 934.776L1058.73 941.785C1054.58 941.201 1051.01 940.955 1048.03 941.047C1045.04 941.139 1042.58 941.523 1040.66 942.2C1038.77 942.845 1037.37 943.721 1036.45 944.828C1035.57 945.904 1035.13 947.148 1035.13 948.562C1035.13 950.776 1035.9 952.482 1037.46 953.68C1039.05 954.879 1041.21 955.478 1043.95 955.478C1046.3 955.478 1048.41 955.048 1050.27 954.187C1052.13 953.327 1053.59 952.113 1054.66 950.545C1055.76 948.977 1056.31 947.133 1056.31 945.012V932.886C1056.31 930.857 1055.88 929.105 1055.02 927.63C1054.17 926.124 1052.87 924.956 1051.14 924.126C1049.4 923.296 1047.23 922.881 1044.64 922.881C1042.26 922.881 1039.91 923.25 1037.6 923.987C1035.28 924.694 1033.07 925.816 1030.96 927.353L1028.13 919.884C1030.96 917.947 1033.92 916.58 1037 915.78C1040.08 914.981 1043.04 914.582 1045.88 914.582C1050.08 914.582 1053.68 915.258 1056.67 916.61C1059.69 917.932 1062.01 919.945 1063.62 922.65C1065.24 925.325 1066.05 928.706 1066.05 932.794V962.072H1056.99V956.677C1055.47 958.86 1053.35 960.535 1050.63 961.703C1047.92 962.871 1044.89 963.455 1041.53 963.455Z" fill="white"/>
<path d="M1097.27 982.82C1093.88 982.82 1090.83 982.512 1088.12 981.898C1085.41 981.314 1083.09 980.453 1081.17 979.316C1079.28 978.178 1077.83 976.811 1076.82 975.212C1075.82 973.614 1075.31 971.831 1075.31 969.864C1075.31 968.296 1075.72 966.821 1076.55 965.438C1077.4 964.054 1078.65 962.871 1080.3 961.887C1081.98 960.873 1084.02 960.12 1086.43 959.628C1084.63 958.706 1083.29 957.661 1082.4 956.493C1081.55 955.325 1081.12 953.988 1081.12 952.482C1081.12 951.191 1081.49 949.976 1082.22 948.839C1082.98 947.671 1084.05 946.641 1085.42 945.75C1086.82 944.828 1088.47 944.075 1090.36 943.491C1092.25 942.907 1094.34 942.569 1096.63 942.476L1098.82 946.903C1096.93 946.872 1095.32 947.026 1093.97 947.364C1092.66 947.671 1091.64 948.117 1090.91 948.701C1090.21 949.254 1089.86 949.93 1089.86 950.729C1089.86 951.775 1090.45 952.543 1091.64 953.035C1092.83 953.496 1094.51 953.819 1096.67 954.003L1104.45 954.602C1108.26 954.91 1111.51 955.54 1114.19 956.493C1116.91 957.446 1118.98 958.783 1120.41 960.504C1121.88 962.225 1122.61 964.408 1122.61 967.051C1122.61 969.295 1122 971.37 1120.78 973.276C1119.59 975.212 1117.87 976.887 1115.61 978.301C1113.38 979.715 1110.72 980.822 1107.61 981.621C1104.5 982.42 1101.05 982.82 1097.27 982.82ZM1098.27 975.812C1102.82 975.812 1106.39 975.12 1108.98 973.737C1111.6 972.384 1112.91 970.617 1112.91 968.434C1112.91 966.775 1112.04 965.484 1110.3 964.562C1108.57 963.639 1105.91 963.055 1102.35 962.809L1094.02 962.164C1092.07 962.318 1090.38 962.687 1088.94 963.271C1087.54 963.855 1086.47 964.608 1085.74 965.53C1085.01 966.452 1084.64 967.497 1084.64 968.665C1084.64 970.079 1085.19 971.324 1086.29 972.4C1087.39 973.476 1088.96 974.305 1091 974.889C1093.04 975.504 1095.47 975.812 1098.27 975.812ZM1097.95 947.594C1094.17 947.594 1090.77 946.872 1087.75 945.427C1084.77 943.982 1082.4 942.031 1080.66 939.572C1078.93 937.113 1078.06 934.362 1078.06 931.318C1078.06 928.275 1078.93 925.524 1080.66 923.065C1082.43 920.606 1084.81 918.654 1087.8 917.21C1090.82 915.765 1094.2 915.043 1097.95 915.043C1101.71 915.043 1105.07 915.765 1108.06 917.21C1111.05 918.654 1113.42 920.606 1115.15 923.065C1116.92 925.524 1117.81 928.275 1117.81 931.318C1117.81 934.331 1116.94 937.066 1115.2 939.525C1113.46 941.985 1111.1 943.952 1108.11 945.427C1105.12 946.872 1101.74 947.594 1097.95 947.594ZM1097.95 939.987C1100.03 939.987 1101.87 939.633 1103.49 938.926C1105.11 938.188 1106.37 937.174 1107.29 935.883C1108.2 934.561 1108.66 933.04 1108.66 931.318C1108.66 928.736 1107.65 926.646 1105.64 925.048C1103.66 923.419 1101.1 922.604 1097.95 922.604C1095.85 922.604 1093.99 922.973 1092.37 923.711C1090.79 924.449 1089.54 925.478 1088.62 926.8C1087.71 928.091 1087.25 929.597 1087.25 931.318C1087.25 933.87 1088.24 935.96 1090.22 937.589C1092.24 939.187 1094.81 939.987 1097.95 939.987ZM1105 924.449L1101.25 917.394L1125.54 916.426L1125.45 924.817L1105 924.449Z" fill="white"/>
<path d="M1146.77 963.455C1143.63 963.455 1140.87 962.871 1138.49 961.703C1136.12 960.504 1134.26 958.829 1132.91 956.677C1131.6 954.495 1130.95 951.928 1130.95 948.977C1130.95 946.488 1131.57 944.244 1132.82 942.246C1134.07 940.217 1136.01 938.542 1138.63 937.22C1141.28 935.898 1144.68 935.022 1148.83 934.592C1152.98 934.131 1157.96 934.192 1163.79 934.776L1163.97 941.785C1159.83 941.201 1156.26 940.955 1153.27 941.047C1150.28 941.139 1147.83 941.523 1145.9 942.2C1144.01 942.845 1142.61 943.721 1141.7 944.828C1140.81 945.904 1140.37 947.148 1140.37 948.562C1140.37 950.776 1141.15 952.482 1142.7 953.68C1144.29 954.879 1146.45 955.478 1149.2 955.478C1151.55 955.478 1153.65 955.048 1155.51 954.187C1157.37 953.327 1158.83 952.113 1159.9 950.545C1161 948.977 1161.55 947.133 1161.55 945.012V932.886C1161.55 930.857 1161.12 929.105 1160.27 927.63C1159.41 926.124 1158.12 924.956 1156.38 924.126C1154.64 923.296 1152.48 922.881 1149.88 922.881C1147.51 922.881 1145.16 923.25 1142.84 923.987C1140.52 924.694 1138.31 925.816 1136.21 927.353L1133.37 919.884C1136.21 917.947 1139.16 916.58 1142.24 915.78C1145.32 914.981 1148.28 914.582 1151.12 914.582C1155.33 914.582 1158.93 915.258 1161.91 916.61C1164.93 917.932 1167.25 919.945 1168.87 922.65C1170.48 925.325 1171.29 928.706 1171.29 932.794V962.072H1162.23V956.677C1160.71 958.86 1158.59 960.535 1155.88 961.703C1153.16 962.871 1150.13 963.455 1146.77 963.455Z" fill="white"/>
<path d="M1184.67 962.072V916.426H1194.73V962.072H1184.67ZM1189.7 908.265C1187.9 908.265 1186.35 907.681 1185.04 906.513C1183.73 905.345 1183.07 903.808 1183.07 901.902C1183.07 900.027 1183.73 898.506 1185.04 897.338C1186.35 896.139 1187.9 895.54 1189.7 895.54C1191.5 895.54 1193.06 896.139 1194.37 897.338C1195.68 898.506 1196.34 900.027 1196.34 901.902C1196.34 903.808 1195.68 905.345 1194.37 906.513C1193.06 907.681 1191.5 908.265 1189.7 908.265Z" fill="white"/>
<path d="M1208.7 962.072V916.426H1218.77V922.235C1220.66 919.684 1222.85 917.855 1225.35 916.749C1227.85 915.611 1230.45 915.043 1233.13 915.043C1237.28 915.043 1240.71 915.873 1243.42 917.533C1246.14 919.192 1248.15 921.329 1249.46 923.941C1250.8 926.554 1251.47 929.244 1251.47 932.01V962.072H1241.41V935.145C1241.41 931.887 1240.43 929.274 1238.48 927.307C1236.56 925.34 1233.88 924.356 1230.43 924.356C1228.17 924.356 1226.16 924.864 1224.39 925.878C1222.66 926.892 1221.28 928.306 1220.28 930.12C1219.27 931.902 1218.77 933.993 1218.77 936.39V962.072H1208.7Z" fill="white"/>
<path d="M1268.42 940.125L1266.82 897.522H1278.71L1277.11 940.125H1268.42ZM1272.76 963.455C1270.81 963.455 1269.12 962.825 1267.69 961.565C1266.28 960.304 1265.58 958.66 1265.58 956.631C1265.58 955.248 1265.9 954.049 1266.54 953.035C1267.18 951.99 1268.05 951.191 1269.15 950.637C1270.25 950.053 1271.45 949.761 1272.76 949.761C1274.75 949.761 1276.42 950.391 1277.8 951.652C1279.2 952.881 1279.9 954.541 1279.9 956.631C1279.9 957.984 1279.58 959.182 1278.94 960.227C1278.3 961.242 1277.43 962.026 1276.33 962.579C1275.26 963.163 1274.08 963.455 1272.76 963.455Z" fill="white"/>
<defs>
<linearGradient id="paint0_linear_57_147" x1="137.946" y1="736.098" x2="652.767" y2="734.289" gradientUnits="userSpaceOnUse">
<stop stop-color="#02C4CF"/>
<stop offset="0.300304" stop-color="#12ABFB"/>
<stop offset="0.578378" stop-color="#745EFE"/>
<stop offset="0.8289" stop-color="#D057E0"/>
<stop offset="1" stop-color="#F96499"/>
</linearGradient>
<linearGradient id="paint1_linear_57_147" x1="137.04" y1="736.098" x2="651.862" y2="734.289" gradientUnits="userSpaceOnUse">
<stop stop-color="#02C4CF"/>
<stop offset="0.300304" stop-color="#12ABFB"/>
<stop offset="0.578378" stop-color="#745EFE"/>
<stop offset="0.8289" stop-color="#D057E0"/>
<stop offset="1" stop-color="#F96499"/>
</linearGradient>
</defs>
</svg>
