<svg width="1547" height="1547" viewBox="0 0 1547 1547" fill="none" xmlns="http://www.w3.org/2000/svg">
<path d="M252.521 908.905C216.347 947.936 151.512 993.38 164.869 862.903C181.565 699.806 375.652 595.257 423.652 601.53C461.913 595.954 541.221 606.417 592.696 657.987C659.874 725.288 803.479 933.997 957.914 643.35C1081.46 410.833 1278.68 437.052 1341.92 503.254C1388.22 551.737 1435.8 716.925 1281.39 885.904C1200.79 974.115 1109.85 1043.98 966.262 1082.46C822.679 1120.93 697.74 1017.64 649.044 965.361C599.352 912.018 510.052 779.264 438.261 779.264C366.469 779.264 290.482 867.945 252.521 908.905Z" fill="url(#paint0_linear_57_185)"/>
<path d="M250.437 908.905C214.263 947.936 149.428 993.38 162.784 862.903C179.48 699.806 373.568 595.257 421.568 601.53C459.829 595.954 539.136 606.417 590.612 657.987C657.789 725.288 801.395 933.997 955.83 643.35C1079.38 410.833 1276.6 437.052 1339.83 503.254C1386.14 551.737 1433.71 716.925 1279.31 885.904C1198.71 974.115 1107.76 1043.98 964.178 1082.46C820.595 1120.93 695.655 1017.64 646.96 965.361C597.268 912.018 507.968 779.264 436.176 779.264C364.385 779.264 288.397 867.945 250.437 908.905Z" fill="url(#paint1_linear_57_185)"/>
<path d="M1191.96 1009.44C1186.95 1007.35 1181.11 1003.16 1178.19 999.819C1171.51 991.455 1127.26 824.595 1127.26 806.613C1127.26 789.048 1138.95 774.83 1153.14 774.83C1158.57 774.83 1199.06 791.139 1243.72 811.213C1315.51 843.414 1325.11 848.85 1330.95 860.978C1339.3 878.542 1332.2 897.779 1313.42 907.398C1306.33 910.743 1299.65 914.507 1298.81 915.344C1297.98 916.18 1303.4 924.544 1310.5 934.581C1324.69 954.236 1326.36 965.945 1317.18 983.928C1308.41 1000.66 1295.06 1009.02 1276.69 1009.02C1264.59 1009.02 1259.16 1006.51 1250.39 995.637C1243.3 986.855 1238.29 983.928 1237.04 986.855C1229.94 1005.67 1208.24 1016.13 1191.96 1009.44Z" fill="#1A1642"/>
<path d="M1315.68 873.587C1316.05 876.561 1315.7 879.532 1314.67 882.172C1313.57 884.79 1311.88 886.988 1309.76 888.55L1269.12 909.701L1300.41 952.266C1301.67 953.578 1302.73 955.137 1303.5 956.858C1304.39 958.847 1304.96 960.983 1305.18 963.154C1305.36 965.33 1305.13 967.489 1304.5 969.482C1303.89 971.537 1302.91 973.402 1301.62 974.953L1287.97 989.22C1286.36 990.937 1284.38 992.133 1282.19 992.701C1280.84 993.063 1279.46 993.192 1278.05 993.088C1274.33 992.742 1270.76 990.762 1268.1 987.566L1236.6 944.578L1214.91 987.51C1213.5 990.178 1211.4 992.243 1208.86 993.439C1206.33 994.635 1203.48 994.907 1200.68 994.22C1197.95 993.477 1195.4 991.865 1193.34 989.577C1191.28 987.288 1189.8 984.42 1189.07 981.313L1144 812.806C1143.29 810 1143.19 807.089 1143.7 804.333C1144.26 801.521 1145.53 799.009 1147.34 797.089C1149.12 795.16 1151.35 793.859 1153.81 793.326C1156.27 792.793 1158.86 793.048 1161.31 794.062L1305.94 859.575C1308.42 860.751 1310.64 862.649 1312.37 865.077C1314.14 867.555 1315.28 870.502 1315.68 873.587Z" fill="white"/>
<defs>
<linearGradient id="paint0_linear_57_185" x1="163.177" y1="848.656" x2="1348.57" y2="844.491" gradientUnits="userSpaceOnUse">
<stop stop-color="#02C4CF"/>
<stop offset="0.300304" stop-color="#12ABFB"/>
<stop offset="0.578378" stop-color="#745EFE"/>
<stop offset="0.8289" stop-color="#D057E0"/>
<stop offset="1" stop-color="#F96499"/>
</linearGradient>
<linearGradient id="paint1_linear_57_185" x1="161.093" y1="848.656" x2="1346.49" y2="844.491" gradientUnits="userSpaceOnUse">
<stop stop-color="#02C4CF"/>
<stop offset="0.300304" stop-color="#12ABFB"/>
<stop offset="0.578378" stop-color="#745EFE"/>
<stop offset="0.8289" stop-color="#D057E0"/>
<stop offset="1" stop-color="#F96499"/>
</linearGradient>
</defs>
</svg>
