<svg width="1547" height="1547" viewBox="0 0 1547 1547" fill="none" xmlns="http://www.w3.org/2000/svg">
<rect width="1547" height="1547" fill="#1A1642"/>
<path d="M546.748 676.264C531.037 693.216 502.879 712.952 508.68 656.285C515.931 585.452 600.224 540.046 621.071 542.77C637.688 540.348 672.131 544.892 694.487 567.289C723.663 596.519 786.031 687.161 853.103 560.933C906.76 459.949 992.414 471.336 1019.88 500.088C1039.99 521.145 1060.65 592.886 993.591 666.275C958.586 704.585 919.087 734.929 856.729 751.638C794.37 768.348 740.108 723.486 718.959 700.783C697.378 677.616 658.595 619.961 627.415 619.961C596.236 619.961 563.234 658.475 546.748 676.264Z" fill="url(#paint0_linear_56_124)"/>
<path d="M545.843 676.264C530.132 693.216 501.974 712.952 507.775 656.285C515.026 585.452 599.319 540.046 620.166 542.77C636.782 540.348 671.226 544.892 693.582 567.289C722.758 596.519 785.126 687.161 852.198 560.933C905.855 459.949 991.508 471.336 1018.97 500.088C1039.08 521.145 1059.74 592.886 992.686 666.275C957.68 704.585 918.182 734.929 855.823 751.638C793.465 768.348 739.203 723.486 718.054 700.783C696.473 677.616 657.69 619.961 626.51 619.961C595.331 619.961 562.329 658.475 545.843 676.264Z" fill="url(#paint1_linear_56_124)"/>
<path d="M954.75 719.926C952.575 719.018 950.037 717.202 948.768 715.749C945.868 712.116 926.652 639.648 926.652 631.838C926.652 624.21 931.728 618.035 937.891 618.035C940.248 618.035 957.832 625.118 977.228 633.836C1008.41 647.821 1012.58 650.182 1015.11 655.449C1018.74 663.078 1015.66 671.432 1007.5 675.61C1004.42 677.063 1001.52 678.697 1001.16 679.06C1000.79 679.424 1003.15 683.056 1006.23 687.415C1012.4 695.952 1013.12 701.037 1009.13 708.847C1005.33 716.112 999.525 719.744 991.549 719.744C986.292 719.744 983.935 718.655 980.129 713.932C977.047 710.118 974.872 708.847 974.328 710.118C971.246 718.291 961.82 722.832 954.75 719.926Z" fill="#1A1642"/>
<path d="M1008.48 660.925C1008.64 662.217 1008.49 663.507 1008.04 664.654C1007.57 665.791 1006.83 666.745 1005.91 667.424L988.261 676.61L1001.85 695.096C1002.4 695.666 1002.86 696.343 1003.19 697.09C1003.58 697.954 1003.83 698.882 1003.92 699.824C1004 700.77 1003.9 701.707 1003.62 702.573C1003.36 703.465 1002.94 704.275 1002.38 704.949L996.448 711.145C995.75 711.891 994.886 712.41 993.935 712.657C993.348 712.814 992.75 712.87 992.14 712.825C990.523 712.675 988.973 711.815 987.818 710.427L974.135 691.757L964.715 710.402C964.106 711.561 963.191 712.458 962.091 712.977C960.99 713.497 959.752 713.615 958.538 713.317C957.351 712.994 956.244 712.294 955.349 711.3C954.455 710.306 953.811 709.06 953.494 707.711L933.922 634.528C933.612 633.309 933.566 632.045 933.79 630.848C934.035 629.627 934.584 628.536 935.373 627.702C936.142 626.864 937.113 626.299 938.182 626.068C939.25 625.836 940.376 625.947 941.439 626.387L1004.25 654.84C1005.33 655.351 1006.29 656.175 1007.04 657.23C1007.81 658.305 1008.31 659.585 1008.48 660.925Z" fill="white"/>
<path fill-rule="evenodd" clip-rule="evenodd" d="M806.722 807.78C780.292 819.531 788.069 855.347 817.052 855.347C826.308 855.347 831.894 853.674 836.855 849.417C859.017 830.399 833.904 795.698 806.722 807.78ZM457.374 929.182L457.75 1044.23L477.557 1044.62C504.98 1045.17 503.967 1045.58 503.967 1033.99V1024.49L511.444 1031.3C538.05 1055.57 584.517 1053.03 613.92 1025.71C653.507 988.925 647.533 914.841 602.74 887.062C574.368 869.469 527.775 872.385 508.991 892.931L503.967 898.425V858.455C503.967 836.47 503.567 817.506 503.077 816.311C502.318 814.459 498.841 814.138 479.592 814.138H457L457.374 929.182ZM925.425 816.118C902.102 821.408 889.848 838.536 889.848 865.846V878.592L877.01 878.989L864.172 879.386L863.755 894.987C863.237 914.4 863.249 914.415 878.276 914.415H889.819L890.2 979.32L890.582 1044.23L909.656 1044.62C920.146 1044.84 930.216 1044.67 932.031 1044.25L935.332 1043.49V978.993V914.5L953.306 914.114L971.279 913.728V896.557V879.386L953.306 879L935.332 878.614V870.371C935.332 853.126 940.812 848.145 960.932 847.105L974.214 846.419L974.633 832.196C974.908 822.888 974.466 817.311 973.354 816.055C971.137 813.555 936.528 813.6 925.425 816.118ZM1043.98 815.638C1019.2 820.184 1007.37 835.049 1006.09 863.246L1005.39 878.7H994.863C981.021 878.7 980.816 878.962 980.816 896.557C980.816 914.187 980.998 914.415 995.048 914.415H1005.76V978.83C1005.76 1036.3 1006.01 1043.33 1008.08 1044.08C1009.36 1044.54 1018.55 1044.91 1028.5 1044.91C1038.46 1044.91 1047.65 1044.54 1048.92 1044.08C1050.99 1043.33 1051.24 1036.3 1051.24 978.83V914.415H1068.56C1090.01 914.415 1089.39 914.928 1089.39 897.082C1089.39 877.351 1090.87 878.7 1069.27 878.7H1050.93L1051.46 867.727C1052.23 852.038 1056.45 848.035 1072.88 847.42C1092.2 846.696 1090.86 847.883 1090.86 831.557C1090.86 822.404 1090.24 816.855 1089.1 815.786C1087.03 813.848 1054.32 813.741 1043.98 815.638ZM744.202 877.447C731.816 880.179 721.666 886.55 714.349 896.185L709.379 902.73V892.888C709.379 877.746 711.017 878.7 685.013 878.7H662.428V961.093V1043.49L665.729 1044.25C667.544 1044.67 677.614 1044.84 688.104 1044.62L707.178 1044.23L707.988 997.521C708.892 945.432 709.529 941.538 718.819 931.377C726.964 922.468 736.447 919.227 754.373 919.225C762.576 919.224 769.839 918.713 770.513 918.091C772.483 916.266 775.243 879.662 773.56 877.669C771.876 875.673 752.894 875.531 744.202 877.447ZM796.961 879.58C796.403 880.103 795.946 917.196 795.946 962.009V1043.49L799.247 1044.25C801.062 1044.67 811.131 1044.84 821.622 1044.62L840.696 1044.23V961.806V879.386L819.336 879.007C807.589 878.8 797.52 879.057 796.961 879.58ZM567.363 917.416C602.832 931.701 603.105 987.992 567.792 1005.52C558.052 1010.36 536.56 1009.8 526.221 1004.45C488.815 985.074 496.129 922.378 536.725 914.406C545.238 912.735 559.129 914.1 567.363 917.416Z" fill="white"/>
<defs>
<linearGradient id="paint0_linear_56_124" x1="507.946" y1="650.098" x2="1022.77" y2="648.289" gradientUnits="userSpaceOnUse">
<stop stop-color="#02C4CF"/>
<stop offset="0.300304" stop-color="#12ABFB"/>
<stop offset="0.578378" stop-color="#745EFE"/>
<stop offset="0.8289" stop-color="#D057E0"/>
<stop offset="1" stop-color="#F96499"/>
</linearGradient>
<linearGradient id="paint1_linear_56_124" x1="507.04" y1="650.098" x2="1021.86" y2="648.289" gradientUnits="userSpaceOnUse">
<stop stop-color="#02C4CF"/>
<stop offset="0.300304" stop-color="#12ABFB"/>
<stop offset="0.578378" stop-color="#745EFE"/>
<stop offset="0.8289" stop-color="#D057E0"/>
<stop offset="1" stop-color="#F96499"/>
</linearGradient>
</defs>
</svg>
